<?xml version="1.0" encoding="UTF-8"?>
<svg id="Layer_1" xmlns="http://www.w3.org/2000/svg" version="1.1" viewBox="27.599999999999998 59.97949886104784 545.4 155.3469020501139">
  <!-- Generator: Adobe Illustrator 29.2.1, SVG Export Plug-In . SVG Version: 2.1.0 Build 116)  -->
  <defs>
    <style>
      .st0, .st1 {
        fill: #004a7c;
      }

      .st0, .st2, .st3 {
        fill-rule: evenodd;
      }

      .st2 {
        fill: #4b8bc9;
      }

      .st3 {
        fill: #06a5ed;
      }
    </style>
  </defs>
  <g>
    <g>
      <path class="st1" d="M262.65,87.35c-12.31-10.31-34.41-7.68-62.34-8.18l-13.16,73.46c32.81-.02,47.1,1.09,58.88-3.34,12.02-5.83,22.2-18.51,24.47-31.59,1.68-10.76,2.05-23.25-7.86-30.34ZM244.88,123.36c-2.93,7.46-8.76,12.45-21.04,12.93h-10.56l6.88-40.18s16.94-1.54,21.78,2.21c8.07,6.27,4.3,21.96,2.94,25.04Z"/>
      <path class="st1" d="M560.51,95.95l3.24-16.77h-87.23l-29.95,31.04c1.98-12.69,3.03-20.27,4.25-31.04h-22.57l-11.28,57.8-15.3-57.8h-28.7c-12.88,18.66-26.15,39.26-40.37,57.92l-6.12-16.13s3.87-1.98,7.83-4.45c11.03-6.91,12.56-19.4,9.88-27.86-2.29-4.61-6.06-9.09-12.31-9.48h-53.35c-3.18,24.21-8.25,48.86-12.2,73.46h24.01c3.2-19.41,6.31-39.31,10.64-58.34h14.44c6.84.04,7.95,4.16,6.94,10.77-1.19,6.04-10.7,6.72-22.16,6.55,3.63,13.64,7.13,27.39,11.14,41.03h36.16l14.68-22.4,26.61-.02c2.63,8.91,3.92,12.65,6.73,22.43h42.37l6.79-33.76c6.67,10.95,14.09,22.24,20.19,33.76h85.64c1.54-6.95,3.61-16.97,3.61-16.97h-35.34l1.11-11.86h30.4l2.68-16.29h-29.96l1.46-11.56h36.03ZM372.04,113.64c4.89-8.1,6.8-11.7,10.21-17.46l5.16,17.46h-15.36ZM491.66,147.07l-19.64-33.23,29.99-29.61-10.35,62.84Z"/>
    </g>
    <g>
      <path class="st1" d="M189.06,174.17c1.86,0,3.26.33,4.2.99.95.66,1.42,1.65,1.42,2.96,0,1.22-.34,2.22-1.01,3.01-.67.79-1.63,1.31-2.87,1.57v.07c.81.21,1.46.6,1.94,1.17.48.57.72,1.3.72,2.19,0,1.86-.62,3.28-1.86,4.29-1.24,1.01-2.95,1.51-5.14,1.51h-6.34l3.76-17.77h5.18ZM184.49,188.83h2.19c.95,0,1.69-.24,2.23-.71.54-.47.81-1.12.81-1.96,0-1.31-.74-1.97-2.22-1.97h-2.01l-1,4.63ZM186.11,181.21h1.81c.98,0,1.72-.2,2.2-.59.49-.39.74-.96.74-1.7,0-1.11-.69-1.66-2.07-1.66h-1.85l-.84,3.95Z"/>
      <path class="st1" d="M216.33,174.17l-2.44,11.5c-.46,2.15-1.34,3.78-2.65,4.87-1.3,1.09-3,1.64-5.09,1.64-1.72,0-3.07-.46-4.05-1.38-.98-.92-1.48-2.16-1.48-3.74,0-.58.06-1.14.18-1.68l2.38-11.22h3.71l-2.36,11.17c-.14.6-.21,1.11-.21,1.52,0,1.44.77,2.16,2.3,2.16,1,0,1.79-.31,2.37-.93.58-.62,1.01-1.55,1.26-2.78l2.36-11.14h3.72Z"/>
      <path class="st1" d="M231.57,186.69c0,1.69-.6,3.03-1.8,4.02-1.2.98-2.82,1.48-4.87,1.48-1.79,0-3.23-.36-4.33-1.09v-3.33c1.56.88,3.01,1.31,4.35,1.31.91,0,1.62-.17,2.13-.52.51-.34.76-.82.76-1.42,0-.35-.05-.65-.16-.92-.11-.26-.27-.51-.47-.74-.2-.23-.7-.64-1.51-1.24-1.12-.8-1.9-1.6-2.36-2.38-.45-.79-.68-1.63-.68-2.54,0-1.05.25-1.98.75-2.8.5-.82,1.22-1.46,2.14-1.92.93-.46,1.99-.69,3.2-.69,1.76,0,3.37.4,4.82,1.2l-1.33,2.83c-1.26-.6-2.43-.9-3.5-.9-.67,0-1.22.18-1.65.55-.43.36-.64.85-.64,1.45,0,.49.13.93.4,1.29.27.37.87.86,1.8,1.46.98.65,1.71,1.36,2.2,2.15.49.78.73,1.7.73,2.74Z"/>
      <path class="st1" d="M237.89,191.94l3.79-17.77h3.7l-3.79,17.77h-3.71Z"/>
      <path class="st1" d="M264.38,191.94h-4.16l-4.33-13.44h-.07l-.05.39c-.26,1.75-.53,3.31-.8,4.69l-1.76,8.36h-3.34l3.75-17.77h4.34l4.13,13.09h.05c.1-.62.26-1.49.47-2.64.22-1.14.95-4.63,2.19-10.45h3.33l-3.75,17.77Z"/>
      <path class="st1" d="M282.57,191.94h-9.93l3.76-17.77h9.94l-.66,3.09h-6.22l-.81,3.9h5.8l-.67,3.09h-5.8l-.97,4.58h6.22l-.66,3.11Z"/>
      <path class="st1" d="M300.96,186.69c0,1.69-.6,3.03-1.8,4.02s-2.82,1.48-4.87,1.48c-1.79,0-3.23-.36-4.33-1.09v-3.33c1.56.88,3.01,1.31,4.35,1.31.91,0,1.62-.17,2.13-.52.51-.34.77-.82.77-1.42,0-.35-.05-.65-.16-.92-.11-.26-.26-.51-.47-.74-.2-.23-.7-.64-1.51-1.24-1.12-.8-1.9-1.6-2.36-2.38-.45-.79-.68-1.63-.68-2.54,0-1.05.25-1.98.75-2.8.5-.82,1.22-1.46,2.15-1.92.93-.46,1.99-.69,3.2-.69,1.76,0,3.37.4,4.82,1.2l-1.32,2.83c-1.26-.6-2.43-.9-3.5-.9-.67,0-1.22.18-1.65.55-.43.36-.64.85-.64,1.45,0,.49.13.93.4,1.29.27.37.87.86,1.8,1.46.98.65,1.71,1.36,2.2,2.15.49.78.73,1.7.73,2.74Z"/>
      <path class="st1" d="M318.13,186.69c0,1.69-.6,3.03-1.8,4.02s-2.82,1.48-4.87,1.48c-1.79,0-3.23-.36-4.33-1.09v-3.33c1.56.88,3.01,1.31,4.35,1.31.91,0,1.62-.17,2.13-.52.51-.34.77-.82.77-1.42,0-.35-.05-.65-.16-.92-.11-.26-.26-.51-.47-.74-.2-.23-.7-.64-1.51-1.24-1.12-.8-1.9-1.6-2.36-2.38-.45-.79-.68-1.63-.68-2.54,0-1.05.25-1.98.75-2.8.5-.82,1.22-1.46,2.15-1.92.93-.46,1.99-.69,3.2-.69,1.76,0,3.37.4,4.82,1.2l-1.32,2.83c-1.26-.6-2.43-.9-3.5-.9-.67,0-1.22.18-1.65.55-.43.36-.64.85-.64,1.45,0,.49.13.93.4,1.29.27.37.87.86,1.8,1.46.98.65,1.71,1.36,2.2,2.15.49.78.73,1.7.73,2.74Z"/>
      <path class="st1" d="M345.74,186.69c0,1.69-.6,3.03-1.8,4.02-1.2.98-2.82,1.48-4.87,1.48-1.79,0-3.23-.36-4.33-1.09v-3.33c1.56.88,3.01,1.31,4.35,1.31.91,0,1.62-.17,2.13-.52s.77-.82.77-1.42c0-.35-.05-.65-.16-.92-.11-.26-.26-.51-.47-.74-.2-.23-.7-.64-1.51-1.24-1.12-.8-1.9-1.6-2.36-2.38-.45-.79-.68-1.63-.68-2.54,0-1.05.25-1.98.75-2.8.5-.82,1.22-1.46,2.15-1.92.93-.46,1.99-.69,3.2-.69,1.76,0,3.37.4,4.82,1.2l-1.32,2.83c-1.26-.6-2.43-.9-3.5-.9-.67,0-1.22.18-1.65.55-.43.36-.64.85-.64,1.45,0,.49.13.93.4,1.29.27.37.87.86,1.8,1.46.98.65,1.71,1.36,2.2,2.15.49.78.73,1.7.73,2.74Z"/>
      <path class="st1" d="M361.98,191.94h-9.93l3.76-17.77h9.94l-.66,3.09h-6.22l-.81,3.9h5.8l-.67,3.09h-5.8l-.97,4.58h6.22l-.66,3.11Z"/>
      <path class="st1" d="M374.68,185.12l-1.45,6.82h-3.71l3.76-17.77h4.36c1.92,0,3.36.41,4.33,1.24.96.83,1.45,2.04,1.45,3.63,0,1.28-.34,2.38-1.01,3.3-.67.92-1.64,1.6-2.9,2.05l3.17,7.55h-4.03l-2.52-6.82h-1.45ZM375.32,182.06h.95c1.06,0,1.89-.23,2.48-.69.59-.46.89-1.17.89-2.11,0-.66-.19-1.16-.58-1.49s-.99-.5-1.82-.5h-.9l-1.02,4.8Z"/>
      <path class="st1" d="M394.52,188.31c.63-1.79,1.08-2.94,1.34-3.44l5.25-10.69h3.84l-9.09,17.77h-4.06l-1.54-17.77h3.58l.62,10.69c.03.36.05.9.05,1.62-.02.83-.04,1.44-.07,1.82h.08Z"/>
      <path class="st1" d="M407.32,191.94l3.79-17.77h3.7l-3.79,17.77h-3.71Z"/>
      <path class="st1" d="M429.66,177.03c-1.07,0-2.03.33-2.89.98-.85.66-1.54,1.62-2.06,2.9-.52,1.28-.78,2.65-.78,4.11,0,1.35.28,2.36.83,3.01.56.66,1.44.98,2.66.98s2.55-.31,4.11-.94v3.16c-1.61.62-3.23.94-4.86.94-2.06,0-3.66-.61-4.8-1.82-1.14-1.21-1.71-2.93-1.71-5.15s.42-4.08,1.26-5.86c.84-1.79,1.97-3.14,3.38-4.07s3.03-1.39,4.86-1.39c1.01,0,1.91.09,2.7.27.79.18,1.63.52,2.53,1l-1.43,3.04c-.86-.48-1.57-.79-2.13-.95s-1.11-.23-1.66-.23Z"/>
      <path class="st1" d="M448.44,191.94h-9.93l3.76-17.77h9.94l-.66,3.09h-6.22l-.81,3.9h5.8l-.67,3.09h-5.8l-.97,4.58h6.22l-.66,3.11Z"/>
      <path class="st1" d="M466.84,186.69c0,1.69-.6,3.03-1.8,4.02-1.2.98-2.82,1.48-4.87,1.48-1.79,0-3.23-.36-4.33-1.09v-3.33c1.56.88,3.01,1.31,4.35,1.31.91,0,1.62-.17,2.13-.52s.77-.82.77-1.42c0-.35-.05-.65-.16-.92-.11-.26-.26-.51-.47-.74-.2-.23-.7-.64-1.51-1.24-1.12-.8-1.9-1.6-2.36-2.38-.45-.79-.68-1.63-.68-2.54,0-1.05.25-1.98.75-2.8.5-.82,1.22-1.46,2.15-1.92.93-.46,1.99-.69,3.2-.69,1.76,0,3.37.4,4.82,1.2l-1.32,2.83c-1.26-.6-2.43-.9-3.5-.9-.67,0-1.22.18-1.65.55-.43.36-.64.85-.64,1.45,0,.49.13.93.4,1.29.27.37.87.86,1.8,1.46.98.65,1.71,1.36,2.2,2.15s.73,1.7.73,2.74Z"/>
      <path class="st1" d="M493.19,187.71h-5.75l-2.09,4.23h-3.89l9.31-17.84h4.53l1.79,17.84h-3.61l-.29-4.23ZM493,184.55l-.32-4.25c-.08-1.06-.12-2.09-.12-3.07v-.44c-.35.97-.8,2-1.32,3.09l-2.29,4.68h4.05Z"/>
      <path class="st1" d="M514.06,186.69c0,1.69-.6,3.03-1.8,4.02-1.2.98-2.82,1.48-4.87,1.48-1.79,0-3.23-.36-4.33-1.09v-3.33c1.56.88,3.01,1.31,4.35,1.31.91,0,1.62-.17,2.13-.52s.77-.82.77-1.42c0-.35-.05-.65-.16-.92-.11-.26-.26-.51-.47-.74-.2-.23-.7-.64-1.51-1.24-1.12-.8-1.9-1.6-2.36-2.38-.45-.79-.68-1.63-.68-2.54,0-1.05.25-1.98.75-2.8.5-.82,1.22-1.46,2.15-1.92.93-.46,1.99-.69,3.2-.69,1.76,0,3.37.4,4.82,1.2l-1.32,2.83c-1.26-.6-2.43-.9-3.5-.9-.67,0-1.22.18-1.65.55-.43.36-.64.85-.64,1.45,0,.49.13.93.4,1.29.27.37.87.86,1.8,1.46.98.65,1.71,1.36,2.2,2.15s.73,1.7.73,2.74Z"/>
      <path class="st1" d="M520.37,191.94l3.79-17.77h3.7l-3.79,17.77h-3.71Z"/>
      <path class="st1" d="M541.95,187.71h-5.75l-2.09,4.23h-3.89l9.31-17.84h4.53l1.79,17.84h-3.61l-.29-4.23ZM541.77,184.55l-.32-4.25c-.08-1.06-.12-2.09-.12-3.07v-.44c-.35.97-.8,2-1.32,3.09l-2.29,4.68h4.05Z"/>
    </g>
  </g>
  <path class="st0" d="M94.7,195.39c21.62,0,39.14,1.62,39.14,3.62s-17.52,3.62-39.14,3.62-39.14-1.62-39.14-3.62,17.52-3.62,39.14-3.62"/>
  <polygon class="st2" points="123.48 175.64 123.46 175.64 123.46 175.65 123.48 175.64"/>
  <path class="st3" d="M103.75,181.94c6.47-1.07,12.59-3.24,18.15-6.28.01,0,.01-.01.01-.01,1.98-1.07,3.87-2.27,5.69-3.57-.78,0-1.57-.03-2.35-.04-5.55-.12-11.14-.44-16.68-1.06-.49,1.35-1.03,2.72-1.61,4.1-.97,2.3-2.06,4.62-3.22,6.86Z"/>
  <path class="st3" d="M118.16,118.52c-.04.85-.08,1.71-.15,2.56-.45,5.85-1.57,11.78-3.09,17.41-.66,2.45-1.42,4.92-2.32,7.31-.08.23-.17.46-.27.72-7.56-1.13-15.2-3.09-22.42-5.36-10.16-3.2-20.18-7.31-29.59-12.29-7.81-4.13-15.81-9.18-22.82-15.15.09-.46.2-.92.31-1.37,2.37-10.11,7.39-19.18,14.29-26.47.78-.82,1.58-1.62,2.4-2.4,3.58,3.26,7.54,6.3,11.28,8.92.23.15.44.31.65.45.21.16.42.31.64.44.62.42,1.23.84,1.84,1.23.61.4,1.19.78,1.78,1.14.29.17.57.36.86.53.28.19.56.36.84.52,13.78,8.36,29.64,14.46,45.77,16.32.09,1.83.08,3.67,0,5.49Z"/>
  <polygon class="st2" points="123.48 175.64 123.46 175.64 123.46 175.65 123.48 175.64"/>
  <path class="st3" d="M36.48,125.02c0,9.39,2.24,18.24,6.22,26.08,20.07,15.2,41.78,22.05,64.27,23.97,1.02.09,2.06.16,3.08.23.28.03.56.04.82.05.45.03.92.05,1.37.07.58.04,1.18.07,1.76.09,1.38.07,2.77.09,4.17.11.94.03,1.9.04,2.84.04h.16c.24,0,.49,0,.74-.01,1.98-1.07,3.87-2.27,5.69-3.57,6.85-4.87,12.59-11.18,16.77-18.52-36.48.72-78.58-11.5-107.62-34.15-.17,1.84-.27,3.71-.27,5.61Z"/>
  <path class="st0" d="M106.97,175.08c1.02.09,2.06.16,3.08.23.28.03.56.04.82.05.45.03.92.05,1.37.07.58.04,1.18.07,1.76.09,1.38.07,2.77.09,4.17.11.94.03,1.9.04,2.84.04h.89s.01-.01.01-.01c1.98-1.07,3.87-2.27,5.69-3.57-.78,0-1.57-.03-2.35-.04-5.55-.12-11.14-.44-16.68-1.06-.49,1.35-1.03,2.72-1.61,4.1Z"/>
  <path class="st3" d="M151.91,120.96c-11.46,1.3-22.82,1.38-33.9.12-1.15-.13-2.3-.28-3.44-.44-.77-.11-1.55-.23-2.34-.34-.64-.11-1.27-.21-1.9-.32-.64-.11-1.27-.23-1.91-.34-.64-.12-1.26-.24-1.9-.37-.62-.13-1.26-.27-1.88-.4-1.26-.28-2.52-.57-3.77-.89-.54-.13-1.1-.28-1.65-.42-.74-.19-1.46-.38-2.19-.6-1.82-.52-3.63-1.07-5.43-1.68-.49-.16-.98-.33-1.47-.5-.24-.08-.46-.16-.7-.25-.49-.17-.98-.34-1.47-.53-4.25-1.57-8.41-3.38-12.48-5.44-.42-.21-.86-.44-1.29-.66-2.73-1.42-5.41-2.95-8.07-4.59-.6-.37-1.18-.74-1.76-1.13-.58-.37-1.17-.76-1.74-1.14-.82-.54-1.64-1.11-2.45-1.68,1.37-1.84,2.8-3.64,4.27-5.39.44-.52.88-1.03,1.33-1.54h0c4.22-4.88,8.77-9.51,13.45-13.93,1.42-1.35,2.87-2.69,4.34-4.02,7.56,4.83,17.46,8.17,25.65,10.35,6.63,1.76,13.48,3.13,20.29,3.97,3.1.38,6.55.72,9.94.77.52.65,1.02,1.3,1.51,1.98.09.11.19.24.25.34,6,8.32,9.83,18.28,10.71,29.09Z"/>
  <path class="st0" d="M118.01,121.08c.07-.85.12-1.71.15-2.56.08-1.83.08-3.67,0-5.5-16.13-1.85-31.99-7.95-45.78-16.31-2.04-1.23-4.28-2.69-6.61-4.31-.44.51-.88,1.03-1.32,1.54-1.47,1.75-2.91,3.54-4.28,5.38,17.6,12.42,37.25,19.4,57.83,21.75h0Z"/>
  <path class="st3" d="M134.81,84.41c-17.87-1.82-34.97-6.93-50.55-15.79,3.22-.56,6.53-.85,9.91-.85,15.83,0,30.18,6.35,40.64,16.64Z"/>
  <path class="st3" d="M50.37,162.58c10.59,12.34,26.3,20.15,43.82,20.15.46,0,.92,0,1.37-.01.4-1.06.76-2.04,1.05-2.92-16.25-3.33-31.85-9.17-46.24-17.22Z"/>
</svg>